<?xml version="1.0" encoding="UTF-8" standalone="no"?><!DOCTYPE svg PUBLIC "-//W3C//DTD SVG 1.1//EN" "http://www.w3.org/Graphics/SVG/1.1/DTD/svg11.dtd"><!-- Generated by graphviz version 2.40.1 (20161225.0304)
 --><!-- Title: PMDExampleLevel1 Pages: 1 --><svg xmlns="http://www.w3.org/2000/svg" xmlns:xlink="http://www.w3.org/1999/xlink" width="192pt" height="188pt" viewBox="0.00 0.00 191.68 188.00">
<g id="graph0" class="graph" transform="scale(1 1) rotate(0) translate(4 184)">
<title>PMDExampleLevel1</title>
<polygon fill="#ffffff" stroke="transparent" points="-4,4 -4,-184 187.6819,-184 187.6819,4 -4,4"/>
<!-- Start -->
<g id="node1" class="node">
<title>Start</title>
<ellipse fill="none" stroke="#000000" cx="95.364" cy="-162" rx="29.049" ry="18"/>
<text text-anchor="middle" x="95.364" y="-157.8" font-family="Times,serif" font-size="14.00" fill="#000000">Start</text>
</g>
<!-- Ausgang -->
<g id="node2" class="node">
<title>Ausgang</title>
<ellipse fill="none" stroke="#000000" cx="45.364" cy="-90" rx="45.2285" ry="18"/>
<text text-anchor="middle" x="45.364" y="-85.8" font-family="Times,serif" font-size="14.00" fill="#000000">Ausgang</text>
</g>
<!-- Start&#45;&gt;Ausgang -->
<g id="edge1" class="edge">
<title>Start-&gt;Ausgang</title>
<path fill="none" stroke="#000000" d="M83.7674,-145.3008C75.9205,-134.0013 65.5725,-119.1002 57.5954,-107.6132"/>
</g>
<!-- Rechts -->
<g id="node3" class="node">
<title>Rechts</title>
<ellipse fill="none" stroke="#000000" cx="146.364" cy="-90" rx="37.1367" ry="18"/>
<text text-anchor="middle" x="146.364" y="-85.8" font-family="Times,serif" font-size="14.00" fill="#000000">Rechts</text>
</g>
<!-- Start&#45;&gt;Rechts -->
<g id="edge2" class="edge">
<title>Start-&gt;Rechts</title>
<path fill="none" stroke="#000000" d="M107.1927,-145.3008C115.3141,-133.8352 126.0624,-118.6612 134.2454,-107.1086"/>
</g>
<!-- Unten -->
<g id="node4" class="node">
<title>Unten</title>
<ellipse fill="none" stroke="#000000" cx="95.364" cy="-18" rx="34.7709" ry="18"/>
<text text-anchor="middle" x="95.364" y="-13.8" font-family="Times,serif" font-size="14.00" fill="#000000">Unten</text>
</g>
<!-- Ausgang&#45;&gt;Unten -->
<g id="edge4" class="edge">
<title>Ausgang-&gt;Unten</title>
<path fill="none" stroke="#000000" d="M57.4677,-72.5708C65.3289,-61.2506 75.5329,-46.5568 83.3719,-35.2687"/>
</g>
<!-- Rechts&#45;&gt;Unten -->
<g id="edge3" class="edge">
<title>Rechts-&gt;Unten</title>
<path fill="none" stroke="#000000" d="M134.2778,-72.937C126.1479,-61.4596 115.4752,-46.3922 107.3636,-34.9405"/>
</g>
</g>
</svg>