<?xml version="1.0" encoding="UTF-8" standalone="no"?><!DOCTYPE svg PUBLIC "-//W3C//DTD SVG 1.1//EN" "http://www.w3.org/Graphics/SVG/1.1/DTD/svg11.dtd"><!-- Generated by graphviz version 2.40.1 (20161225.0304)
 --><!-- Title: Zelda3Dungeon Pages: 1 --><svg xmlns="http://www.w3.org/2000/svg" xmlns:xlink="http://www.w3.org/1999/xlink" width="377pt" height="1052pt" viewBox="0.00 0.00 377.00 1052.00">
<g id="graph0" class="graph" transform="scale(1 1) rotate(0) translate(4 1048)">
<title>Zelda3Dungeon</title>
<polygon fill="#ffffff" stroke="transparent" points="-4,4 -4,-1048 373,-1048 373,4 -4,4"/>
<!-- Eingang -->
<g id="node1" class="node">
<title>Eingang</title>
<ellipse fill="none" stroke="#000000" cx="222" cy="-1026" rx="43.4415" ry="18"/>
<text text-anchor="middle" x="222" y="-1021.8" font-family="Times,serif" font-size="14.00" fill="#000000">Eingang</text>
</g>
<!-- A -->
<g id="node2" class="node">
<title>A</title>
<ellipse fill="none" stroke="#000000" cx="222" cy="-954" rx="27" ry="18"/>
<text text-anchor="middle" x="222" y="-949.8" font-family="Times,serif" font-size="14.00" fill="#000000">A</text>
</g>
<!-- Eingang&#45;&gt;A -->
<g id="edge1" class="edge">
<title>Eingang-&gt;A</title>
<path fill="none" stroke="#000000" d="M222,-1007.8314C222,-997 222,-983.2876 222,-972.4133"/>
</g>
<!-- A1 -->
<g id="node3" class="node">
<title>A1</title>
<ellipse fill="none" stroke="#000000" cx="222" cy="-882" rx="27" ry="18"/>
<text text-anchor="middle" x="222" y="-877.8" font-family="Times,serif" font-size="14.00" fill="#000000">A1</text>
</g>
<!-- A&#45;&gt;A1 -->
<g id="edge2" class="edge">
<title>A-&gt;A1</title>
<path fill="none" stroke="#000000" d="M222,-935.8314C222,-925 222,-911.2876 222,-900.4133"/>
</g>
<!-- B -->
<g id="node4" class="node">
<title>B</title>
<ellipse fill="none" stroke="#000000" cx="150" cy="-810" rx="27" ry="18"/>
<text text-anchor="middle" x="150" y="-805.8" font-family="Times,serif" font-size="14.00" fill="#000000">B</text>
</g>
<!-- A1&#45;&gt;B -->
<g id="edge3" class="edge">
<title>A1-&gt;B</title>
<path fill="none" stroke="#000000" d="M206.7307,-866.7307C194.512,-854.512 177.4602,-837.4602 165.2473,-825.2473"/>
</g>
<!-- C -->
<g id="node5" class="node">
<title>C</title>
<ellipse fill="none" stroke="#000000" cx="222" cy="-810" rx="27" ry="18"/>
<text text-anchor="middle" x="222" y="-805.8" font-family="Times,serif" font-size="14.00" fill="#000000">C</text>
</g>
<!-- A1&#45;&gt;C -->
<g id="edge4" class="edge">
<title>A1-&gt;C</title>
<path fill="none" stroke="#000000" d="M222,-863.8314C222,-853 222,-839.2876 222,-828.4133"/>
</g>
<!-- A2 -->
<g id="node6" class="node">
<title>A2</title>
<ellipse fill="none" stroke="#000000" cx="294" cy="-810" rx="27" ry="18"/>
<text text-anchor="middle" x="294" y="-805.8" font-family="Times,serif" font-size="14.00" fill="#000000">A2</text>
</g>
<!-- A1&#45;&gt;A2 -->
<g id="edge5" class="edge">
<title>A1-&gt;A2</title>
<path fill="none" stroke="#000000" d="M237.2693,-866.7307C249.488,-854.512 266.5398,-837.4602 278.7527,-825.2473"/>
</g>
<!-- B1 -->
<g id="node7" class="node">
<title>B1</title>
<ellipse fill="none" stroke="#000000" cx="73" cy="-738" rx="27" ry="18"/>
<text text-anchor="middle" x="73" y="-733.8" font-family="Times,serif" font-size="14.00" fill="#000000">B1</text>
</g>
<!-- B&#45;&gt;B1 -->
<g id="edge6" class="edge">
<title>B-&gt;B1</title>
<path fill="none" stroke="#000000" d="M134.0456,-795.0816C120.8304,-782.7246 102.1435,-765.251 88.934,-752.8993"/>
</g>
<!-- B2 -->
<g id="node8" class="node">
<title>B2</title>
<ellipse fill="none" stroke="#000000" cx="150" cy="-738" rx="27" ry="18"/>
<text text-anchor="middle" x="150" y="-733.8" font-family="Times,serif" font-size="14.00" fill="#000000">B2</text>
</g>
<!-- B&#45;&gt;B2 -->
<g id="edge7" class="edge">
<title>B-&gt;B2</title>
<path fill="none" stroke="#000000" d="M150,-791.8314C150,-781 150,-767.2876 150,-756.4133"/>
</g>
<!-- C1 -->
<g id="node14" class="node">
<title>C1</title>
<ellipse fill="none" stroke="#000000" cx="222" cy="-738" rx="27" ry="18"/>
<text text-anchor="middle" x="222" y="-733.8" font-family="Times,serif" font-size="14.00" fill="#000000">C1</text>
</g>
<!-- C&#45;&gt;C1 -->
<g id="edge13" class="edge">
<title>C-&gt;C1</title>
<path fill="none" stroke="#000000" d="M222,-791.8314C222,-781 222,-767.2876 222,-756.4133"/>
</g>
<!-- C2 -->
<g id="node15" class="node">
<title>C2</title>
<ellipse fill="none" stroke="#000000" cx="294" cy="-738" rx="27" ry="18"/>
<text text-anchor="middle" x="294" y="-733.8" font-family="Times,serif" font-size="14.00" fill="#000000">C2</text>
</g>
<!-- C&#45;&gt;C2 -->
<g id="edge14" class="edge">
<title>C-&gt;C2</title>
<path fill="none" stroke="#000000" d="M237.2693,-794.7307C249.488,-782.512 266.5398,-765.4602 278.7527,-753.2473"/>
</g>
<!-- B3 -->
<g id="node10" class="node">
<title>B3</title>
<ellipse fill="none" stroke="#000000" cx="63" cy="-666" rx="27" ry="18"/>
<text text-anchor="middle" x="63" y="-661.8" font-family="Times,serif" font-size="14.00" fill="#000000">B3</text>
</g>
<!-- B1&#45;&gt;B3 -->
<g id="edge9" class="edge">
<title>B1-&gt;B3</title>
<path fill="none" stroke="#000000" d="M70.4766,-719.8314C68.9722,-709 67.0677,-695.2876 65.5574,-684.4133"/>
</g>
<!-- BigChest -->
<g id="node9" class="node">
<title>BigChest</title>
<ellipse fill="none" stroke="#000000" cx="155" cy="-666" rx="46.967" ry="18"/>
<text text-anchor="middle" x="155" y="-661.8" font-family="Times,serif" font-size="14.00" fill="#000000">BigChest</text>
</g>
<!-- B2&#45;&gt;BigChest -->
<g id="edge8" class="edge">
<title>B2-&gt;BigChest</title>
<path fill="none" stroke="#000000" d="M151.2617,-719.8314C152.0139,-709 152.9661,-695.2876 153.7213,-684.4133"/>
</g>
<!-- B4 -->
<g id="node11" class="node">
<title>B4</title>
<ellipse fill="none" stroke="#000000" cx="63" cy="-594" rx="27" ry="18"/>
<text text-anchor="middle" x="63" y="-589.8" font-family="Times,serif" font-size="14.00" fill="#000000">B4</text>
</g>
<!-- B3&#45;&gt;B4 -->
<g id="edge10" class="edge">
<title>B3-&gt;B4</title>
<path fill="none" stroke="#000000" d="M63,-647.8314C63,-637 63,-623.2876 63,-612.4133"/>
</g>
<!-- B5 -->
<g id="node12" class="node">
<title>B5</title>
<ellipse fill="none" stroke="#000000" cx="27" cy="-522" rx="27" ry="18"/>
<text text-anchor="middle" x="27" y="-517.8" font-family="Times,serif" font-size="14.00" fill="#000000">B5</text>
</g>
<!-- B4&#45;&gt;B5 -->
<g id="edge11" class="edge">
<title>B4-&gt;B5</title>
<path fill="none" stroke="#000000" d="M54.2854,-576.5708C48.6253,-565.2506 41.2784,-550.5568 35.6343,-539.2687"/>
</g>
<!-- D -->
<g id="node13" class="node">
<title>D</title>
<ellipse fill="none" stroke="#000000" cx="99" cy="-522" rx="27" ry="18"/>
<text text-anchor="middle" x="99" y="-517.8" font-family="Times,serif" font-size="14.00" fill="#000000">D</text>
</g>
<!-- B4&#45;&gt;D -->
<g id="edge12" class="edge">
<title>B4-&gt;D</title>
<path fill="none" stroke="#000000" d="M71.7146,-576.5708C77.3747,-565.2506 84.7216,-550.5568 90.3657,-539.2687"/>
</g>
<!-- D1 -->
<g id="node19" class="node">
<title>D1</title>
<ellipse fill="none" stroke="#000000" cx="99" cy="-450" rx="27" ry="18"/>
<text text-anchor="middle" x="99" y="-445.8" font-family="Times,serif" font-size="14.00" fill="#000000">D1</text>
</g>
<!-- D&#45;&gt;D1 -->
<g id="edge18" class="edge">
<title>D-&gt;D1</title>
<path fill="none" stroke="#000000" d="M99,-503.8314C99,-496.131 99,-486.9743 99,-478.4166"/>
<polygon fill="#000000" stroke="#000000" points="102.5001,-478.4132 99,-468.4133 95.5001,-478.4133 102.5001,-478.4132"/>
</g>
<!-- C3 -->
<g id="node16" class="node">
<title>C3</title>
<ellipse fill="none" stroke="#000000" cx="270" cy="-666" rx="27" ry="18"/>
<text text-anchor="middle" x="270" y="-661.8" font-family="Times,serif" font-size="14.00" fill="#000000">C3</text>
</g>
<!-- C2&#45;&gt;C3 -->
<g id="edge15" class="edge">
<title>C2-&gt;C3</title>
<path fill="none" stroke="#000000" d="M288.0674,-720.2022C284.3473,-709.0419 279.5714,-694.7143 275.8643,-683.593"/>
</g>
<!-- C4 -->
<g id="node18" class="node">
<title>C4</title>
<ellipse fill="none" stroke="#000000" cx="342" cy="-666" rx="27" ry="18"/>
<text text-anchor="middle" x="342" y="-661.8" font-family="Times,serif" font-size="14.00" fill="#000000">C4</text>
</g>
<!-- C2&#45;&gt;C4 -->
<g id="edge17" class="edge">
<title>C2-&gt;C4</title>
<path fill="none" stroke="#000000" d="M305.1328,-721.3008C312.8873,-709.669 323.1863,-694.2206 330.9276,-682.6087"/>
</g>
<!-- BigKey -->
<g id="node17" class="node">
<title>BigKey</title>
<ellipse fill="none" stroke="#000000" cx="270" cy="-594" rx="41.1509" ry="18"/>
<text text-anchor="middle" x="270" y="-589.8" font-family="Times,serif" font-size="14.00" fill="#000000">BigKey</text>
</g>
<!-- C3&#45;&gt;BigKey -->
<g id="edge16" class="edge">
<title>C3-&gt;BigKey</title>
<path fill="none" stroke="#000000" d="M270,-647.8314C270,-637 270,-623.2876 270,-612.4133"/>
</g>
<!-- D2 -->
<g id="node20" class="node">
<title>D2</title>
<ellipse fill="none" stroke="#000000" cx="99" cy="-378" rx="27" ry="18"/>
<text text-anchor="middle" x="99" y="-373.8" font-family="Times,serif" font-size="14.00" fill="#000000">D2</text>
</g>
<!-- D1&#45;&gt;D2 -->
<g id="edge19" class="edge">
<title>D1-&gt;D2</title>
<path fill="none" stroke="#000000" d="M99,-431.8314C99,-424.131 99,-414.9743 99,-406.4166"/>
<polygon fill="#000000" stroke="#000000" points="102.5001,-406.4132 99,-396.4133 95.5001,-406.4133 102.5001,-406.4132"/>
</g>
<!-- D3 -->
<g id="node21" class="node">
<title>D3</title>
<ellipse fill="none" stroke="#000000" cx="99" cy="-306" rx="27" ry="18"/>
<text text-anchor="middle" x="99" y="-301.8" font-family="Times,serif" font-size="14.00" fill="#000000">D3</text>
</g>
<!-- D2&#45;&gt;D3 -->
<g id="edge20" class="edge">
<title>D2-&gt;D3</title>
<path fill="none" stroke="#000000" d="M99,-359.8314C99,-352.131 99,-342.9743 99,-334.4166"/>
<polygon fill="#000000" stroke="#000000" points="102.5001,-334.4132 99,-324.4133 95.5001,-334.4133 102.5001,-334.4132"/>
</g>
<!-- D4 -->
<g id="node22" class="node">
<title>D4</title>
<ellipse fill="none" stroke="#000000" cx="99" cy="-234" rx="27" ry="18"/>
<text text-anchor="middle" x="99" y="-229.8" font-family="Times,serif" font-size="14.00" fill="#000000">D4</text>
</g>
<!-- D3&#45;&gt;D4 -->
<g id="edge21" class="edge">
<title>D3-&gt;D4</title>
<path fill="none" stroke="#000000" d="M99,-287.8314C99,-280.131 99,-270.9743 99,-262.4166"/>
<polygon fill="#000000" stroke="#000000" points="102.5001,-262.4132 99,-252.4133 95.5001,-262.4133 102.5001,-262.4132"/>
</g>
<!-- D5 -->
<g id="node23" class="node">
<title>D5</title>
<ellipse fill="none" stroke="#000000" cx="99" cy="-162" rx="27" ry="18"/>
<text text-anchor="middle" x="99" y="-157.8" font-family="Times,serif" font-size="14.00" fill="#000000">D5</text>
</g>
<!-- D4&#45;&gt;D5 -->
<g id="edge22" class="edge">
<title>D4-&gt;D5</title>
<path fill="none" stroke="#000000" d="M99,-215.8314C99,-208.131 99,-198.9743 99,-190.4166"/>
<polygon fill="#000000" stroke="#000000" points="102.5001,-190.4132 99,-180.4133 95.5001,-190.4133 102.5001,-190.4132"/>
</g>
<!-- D6 -->
<g id="node24" class="node">
<title>D6</title>
<ellipse fill="none" stroke="#000000" cx="99" cy="-90" rx="27" ry="18"/>
<text text-anchor="middle" x="99" y="-85.8" font-family="Times,serif" font-size="14.00" fill="#000000">D6</text>
</g>
<!-- D5&#45;&gt;D6 -->
<g id="edge23" class="edge">
<title>D5-&gt;D6</title>
<path fill="none" stroke="#000000" d="M99,-143.8314C99,-136.131 99,-126.9743 99,-118.4166"/>
<polygon fill="#000000" stroke="#000000" points="102.5001,-118.4132 99,-108.4133 95.5001,-118.4133 102.5001,-118.4132"/>
</g>
<!-- Boss -->
<g id="node25" class="node">
<title>Boss</title>
<ellipse fill="none" stroke="#000000" cx="99" cy="-18" rx="29.6339" ry="18"/>
<text text-anchor="middle" x="99" y="-13.8" font-family="Times,serif" font-size="14.00" fill="#000000">Boss</text>
</g>
<!-- D6&#45;&gt;Boss -->
<g id="edge24" class="edge">
<title>D6-&gt;Boss</title>
<path fill="none" stroke="#000000" d="M99,-71.8314C99,-64.131 99,-54.9743 99,-46.4166"/>
<polygon fill="#000000" stroke="#000000" points="102.5001,-46.4132 99,-36.4133 95.5001,-46.4133 102.5001,-46.4132"/>
</g>
</g>
</svg>